<svg width="32" height="32" viewBox="0 0 32 32" fill="none" xmlns="http://www.w3.org/2000/svg">
<g clip-path="url(#clip0_1137_5166)">
<path fill-rule="evenodd" clip-rule="evenodd" d="M14.8571 2.85781C11.6745 2.85781 8.6223 4.1221 6.37186 6.37253C4.12143 8.62297 2.85714 11.6752 2.85714 14.8578C2.85714 18.0404 4.12143 21.0927 6.37186 23.3431C8.6223 25.5935 11.6745 26.8578 14.8571 26.8578C18.0397 26.8578 21.092 25.5935 23.3424 23.3431C25.5929 21.0927 26.8571 18.0404 26.8571 14.8578C26.8571 11.6752 25.5929 8.62297 23.3424 6.37253C21.092 4.1221 18.0397 2.85781 14.8571 2.85781ZM1.35882e-07 14.8578C0.000434415 12.5117 0.556454 10.1991 1.62254 8.10926C2.68863 6.0194 4.23448 4.21172 6.13355 2.83419C8.03262 1.45666 10.2309 0.548443 12.5485 0.183887C14.8661 -0.18067 17.237 0.00879887 19.4673 0.736782C21.6976 1.46477 23.7237 2.71057 25.3799 4.37221C27.0361 6.03385 28.2753 8.06409 28.996 10.2967C29.7166 12.5294 29.8983 14.9009 29.5262 17.2173C29.154 19.5337 28.2386 21.729 26.8549 23.6235L31.3303 28.099C31.7466 28.53 31.977 29.1074 31.9718 29.7067C31.9666 30.306 31.7262 30.8793 31.3024 31.3031C30.8787 31.7269 30.3054 31.9673 29.7061 31.9725C29.1068 31.9777 28.5294 31.7473 28.0983 31.331L23.6229 26.8555C21.4077 28.4743 18.7875 29.448 16.0528 29.6688C13.318 29.8896 10.5756 29.3488 8.12939 28.1064C5.68319 26.864 3.62878 24.9685 2.19388 22.63C0.758978 20.2916 -0.000370865 17.6014 1.35882e-07 14.8578ZM13.2114 11.4978C13.5142 11.1728 13.6791 10.743 13.6713 10.2989C13.6634 9.85479 13.4835 9.43105 13.1694 9.11696C12.8553 8.80288 12.4316 8.62296 11.9875 8.61513C11.5434 8.60729 11.1135 8.77214 10.7886 9.07496L6.21714 13.6464C5.89611 13.9678 5.71579 14.4035 5.71579 14.8578C5.71579 15.3121 5.89611 15.7478 6.21714 16.0692L10.7886 20.6407C11.1135 20.9435 11.5434 21.1083 11.9875 21.1005C12.4316 21.0927 12.8553 20.9127 13.1694 20.5987C13.4835 20.2846 13.6634 19.8608 13.6713 19.4167C13.6791 18.9726 13.5142 18.5428 13.2114 18.2178L9.85143 14.8578L13.2114 11.4978ZM18.9257 9.07496C18.6007 8.77214 18.1709 8.60729 17.7268 8.61513C17.2827 8.62296 16.859 8.80288 16.5449 9.11696C16.2308 9.43105 16.0509 9.85479 16.043 10.2989C16.0352 10.743 16.2 11.1728 16.5029 11.4978L19.8629 14.8578L16.5029 18.2178C16.2 18.5428 16.0352 18.9726 16.043 19.4167C16.0509 19.8608 16.2308 20.2846 16.5449 20.5987C16.859 20.9127 17.2827 21.0927 17.7268 21.1005C18.1709 21.1083 18.6007 20.9435 18.9257 20.6407L23.4971 16.0692C23.8182 15.7478 23.9985 15.3121 23.9985 14.8578C23.9985 14.4035 23.8182 13.9678 23.4971 13.6464L18.9257 9.07496Z" fill="white" fill-opacity="0.8"/>
</g>
<defs>
<clipPath id="clip0_1137_5166">
<rect width="32" height="32" fill="white"/>
</clipPath>
</defs>
</svg>
