<svg width="20" height="20" viewBox="0 0 20 20" fill="none" xmlns="http://www.w3.org/2000/svg">
<g clip-path="url(#clip0_1014_2135)">
<path d="M10 0C7.34784 0 4.8043 1.05357 2.92893 2.92893C1.05357 4.8043 0 7.34784 0 10C0 12.6522 1.05357 15.1957 2.92893 17.0711C4.8043 18.9464 7.34784 20 10 20C12.6522 20 15.1957 18.9464 17.0711 17.0711C18.9464 15.1957 20 12.6522 20 10C20 7.34784 18.9464 4.8043 17.0711 2.92893C15.1957 1.05357 12.6522 0 10 0ZM2.5 10C2.5 9.01509 2.69399 8.03982 3.0709 7.12987C3.44781 6.21993 4.00026 5.39314 4.6967 4.6967C5.39314 4.00026 6.21993 3.44781 7.12987 3.0709C8.03982 2.69399 9.01509 2.5 10 2.5C10.9849 2.5 11.9602 2.69399 12.8701 3.0709C13.7801 3.44781 14.6069 4.00026 15.3033 4.6967C15.9997 5.39314 16.5522 6.21993 16.9291 7.12987C17.306 8.03982 17.5 9.01509 17.5 10C17.5 11.9891 16.7098 13.8968 15.3033 15.3033C13.8968 16.7098 11.9891 17.5 10 17.5C8.01088 17.5 6.10322 16.7098 4.6967 15.3033C3.29018 13.8968 2.5 11.9891 2.5 10ZM14.2167 7.03333C14.4508 7.26771 14.5822 7.58542 14.5822 7.91667C14.5822 8.24792 14.4508 8.56562 14.2167 8.8L9.63333 13.3833C9.39896 13.6174 9.08125 13.7489 8.75 13.7489C8.41875 13.7489 8.10104 13.6174 7.86667 13.3833L6.2 11.7167C5.9792 11.4797 5.85899 11.1663 5.86471 10.8425C5.87042 10.5186 6.00161 10.2097 6.23063 9.98063C6.45965 9.75161 6.76863 9.62042 7.09246 9.61471C7.4163 9.60899 7.72971 9.7292 7.96667 9.95L8.75 10.7333L12.45 7.03333C12.6844 6.79925 13.0021 6.66777 13.3333 6.66777C13.6646 6.66777 13.9823 6.79925 14.2167 7.03333Z" fill="#42437D"/>
</g>
<defs>
<clipPath id="clip0_1014_2135">
<rect width="20" height="20" fill="white"/>
</clipPath>
</defs>
</svg>
