<svg width="17" height="30" viewBox="0 0 17 30" fill="none" xmlns="http://www.w3.org/2000/svg">
<g clip-path="url(#clip0_1137_5064)">
<path d="M0.106172 19.5996C-0.0957027 20.1152 -7.77051e-05 20.7129 0.350547 21.123L7.57555 29.5605C7.81461 29.8418 8.1493 30 8.49992 30C8.85055 30 9.18524 29.8418 9.4243 29.5605L16.6493 21.123C16.9999 20.7129 17.0955 20.1152 16.8937 19.5996C16.6918 19.084 16.2296 18.75 15.7249 18.75H11.8999V1.875C11.8999 0.837891 11.1402 0 10.1999 0H6.79992C5.85961 0 5.09992 0.837891 5.09992 1.875V18.75H1.27492C0.764922 18.75 0.308047 19.084 0.106172 19.5996Z" fill="#03B4C8"/>
</g>
<defs>
<clipPath id="clip0_1137_5064">
<rect width="17" height="30" fill="white"/>
</clipPath>
</defs>
</svg>
