<svg width="41" height="44" viewBox="0 0 41 44" fill="none" xmlns="http://www.w3.org/2000/svg">
<path d="M20.5 42.1665L10.25 31.1665C7.9291 28.9388 6.2932 26.0072 5.55877 22.7598C4.82435 19.5125 5.02602 16.1023 6.1371 12.9806C7.24818 9.85891 9.2163 7.17284 11.781 5.27782C14.3457 3.3828 17.3862 2.36816 20.5 2.36816C23.6138 2.36816 26.6543 3.3828 29.219 5.27782C31.7837 7.17284 33.7518 9.85891 34.8629 12.9806C35.974 16.1023 36.1757 19.5125 35.4412 22.7598C34.7068 26.0072 33.0709 28.9388 30.75 31.1665L20.5 42.1665Z" fill="#D04797" stroke="#D04797" stroke-width="1.66667" stroke-linecap="round" stroke-linejoin="round"/>
<path d="M26.0312 18.625V20.0625H15.9844V18.625H26.0312Z" fill="white"/>
</svg>
