<svg width="14" height="14" viewBox="0 0 14 14" fill="none" xmlns="http://www.w3.org/2000/svg">
<path d="M7.00003 9.66667H7.00536M7.00003 4.33333V7.66667M1.15336 4.27533L4.27336 1.15333C4.37336 1.05333 4.5067 1 4.65336 1H9.35336C9.49336 1 9.63336 1.05333 9.73337 1.15333L12.8467 4.26867C12.9467 4.36867 13 4.502 13 4.64867V9.35133C13 9.49133 12.9467 9.63133 12.8467 9.73133L9.73337 12.8467C9.63336 12.9467 9.50003 13 9.35336 13H4.6467C4.57638 13.0008 4.5066 12.9876 4.44138 12.9613C4.37617 12.935 4.3168 12.896 4.2667 12.8467L1.15336 9.73133C1.10401 9.68123 1.06506 9.62186 1.03875 9.55665C1.01243 9.49143 0.999274 9.42165 1.00003 9.35133V4.64867C1.00003 4.50867 1.05336 4.36867 1.15336 4.26867V4.27533Z" stroke="white" stroke-miterlimit="10" stroke-linecap="round" stroke-linejoin="round"/>
</svg>
