<svg width="90" height="90" viewBox="0 0 90 90" fill="none" xmlns="http://www.w3.org/2000/svg">
<path d="M24.7838 43.8581C33.2438 43.8581 38.61 51.4294 45.2363 54.1294C46.1531 54.5063 46.5863 55.6425 46.0238 56.4525L30.2006 79.2619C29.63 80.0848 28.8761 80.764 27.9982 81.246C27.1204 81.728 26.1427 81.9996 25.142 82.0394C24.1414 82.0792 23.1452 81.8861 22.2318 81.4754C21.3185 81.0647 20.513 80.4475 19.8788 79.6725L6.60376 63.4612C6.25169 63.0453 6.03372 62.5326 5.9785 61.9904C5.92328 61.4483 6.0334 60.9021 6.29439 60.4237C10.0519 53.64 17.2913 43.8581 24.7838 43.8581ZM59.6138 46.5975C60.1844 45.7746 60.9384 45.0954 61.8162 44.6134C62.694 44.1314 63.6717 43.8598 64.6724 43.82C65.673 43.7802 66.6692 43.9732 67.5826 44.384C68.4959 44.7947 69.3014 45.4119 69.9356 46.1869L83.2106 62.3981C83.9194 63.2588 84.0544 64.4625 83.52 65.4356C79.7681 72.2194 72.5231 82.0069 65.0306 82.0069C56.5706 82.0069 51.1988 74.4356 44.5781 71.7356C43.6613 71.3644 43.2281 70.2169 43.7906 69.4069L59.6138 46.5975ZM28.125 11.25C31.1087 11.25 33.9702 12.4353 36.08 14.545C38.1898 16.6548 39.375 19.5163 39.375 22.5C39.375 25.4837 38.1898 28.3452 36.08 30.455C33.9702 32.5647 31.1087 33.75 28.125 33.75C25.1413 33.75 22.2798 32.5647 20.1701 30.455C18.0603 28.3452 16.875 25.4837 16.875 22.5C16.875 19.5163 18.0603 16.6548 20.1701 14.545C22.2798 12.4353 25.1413 11.25 28.125 11.25ZM61.875 11.25C64.8587 11.25 67.7202 12.4353 69.83 14.545C71.9398 16.6548 73.125 19.5163 73.125 22.5C73.125 25.4837 71.9398 28.3452 69.83 30.455C67.7202 32.5647 64.8587 33.75 61.875 33.75C58.8913 33.75 56.0299 32.5647 53.9201 30.455C51.8103 28.3452 50.625 25.4837 50.625 22.5C50.625 19.5163 51.8103 16.6548 53.9201 14.545C56.0299 12.4353 58.8913 11.25 61.875 11.25Z" fill="#30C0D0"/>
</svg>
