<svg width="32" height="32" viewBox="0 0 32 32" fill="none" xmlns="http://www.w3.org/2000/svg">
<path d="M16.4079 18.6882C17.3929 18.7892 18.3054 19.2519 18.9689 19.9869C19.6325 20.7218 19.9998 21.6767 19.9999 22.6669C19.9999 24.7229 18.7466 26.4242 17.0613 27.5469C15.3679 28.6776 13.1013 29.3336 10.6666 29.3336C8.23192 29.3336 5.96525 28.6776 4.27192 27.5469C2.58392 26.4269 1.33325 24.7229 1.33325 22.6669C1.33325 21.606 1.75468 20.5886 2.50482 19.8385C3.25497 19.0883 4.27239 18.6669 5.33325 18.6669H15.9999L16.4079 18.6882ZM26.6746 18.6669C27.7355 18.6669 28.7529 19.0883 29.503 19.8385C30.2532 20.5886 30.6746 21.606 30.6746 22.6669C30.6746 24.5202 29.5226 25.8962 28.0533 26.7416C26.5919 27.5816 24.6799 28.0002 22.6746 28.0002C21.999 27.9984 21.3404 27.9487 20.6986 27.8509C21.8533 26.4856 22.6693 24.7416 22.6693 22.6669C22.6662 21.2232 22.1945 19.8195 21.3253 18.6669H26.6746ZM10.6719 3.98956C11.4714 3.97307 12.2661 4.11634 13.0095 4.41097C13.7528 4.7056 14.4299 5.14565 15.001 5.70534C15.5721 6.26504 16.0257 6.9331 16.3353 7.67038C16.6449 8.40766 16.8041 9.19932 16.8038 9.99895C16.8034 10.7986 16.6435 11.5901 16.3332 12.3271C16.023 13.0641 15.5688 13.7318 14.9972 14.2909C14.4256 14.8501 13.7481 15.2896 13.0045 15.5836C12.2609 15.8775 11.466 16.0201 10.6666 16.0029C9.09543 15.9698 7.59979 15.3224 6.50034 14.1995C5.40089 13.0767 4.78515 11.5677 4.78515 9.99623C4.78515 8.42472 5.40089 6.91578 6.50034 5.79291C7.59979 4.67005 9.09543 4.02266 10.6666 3.98956M23.3333 6.65889C23.9461 6.65889 24.5529 6.7796 25.1191 7.01412C25.6853 7.24864 26.1997 7.59239 26.6331 8.02573C27.0664 8.45907 27.4102 8.97352 27.6447 9.5397C27.8792 10.1059 27.9999 10.7127 27.9999 11.3256C27.9999 11.9384 27.8792 12.5452 27.6447 13.1114C27.4102 13.6776 27.0664 14.1921 26.6331 14.6254C26.1997 15.0587 25.6853 15.4025 25.1191 15.637C24.5529 15.8715 23.9461 15.9922 23.3333 15.9922C22.0956 15.9922 20.9086 15.5006 20.0334 14.6254C19.1582 13.7502 18.6666 12.5632 18.6666 11.3256C18.6666 10.0879 19.1582 8.9009 20.0334 8.02573C20.9086 7.15056 22.0956 6.65889 23.3333 6.65889Z" fill="white" fill-opacity="0.9"/>
</svg>
