<svg width="48" height="48" viewBox="0 0 48 48" fill="none" xmlns="http://www.w3.org/2000/svg">
<circle cx="24" cy="24" r="24" fill="#0047AB"/>
<path fill-rule="evenodd" clip-rule="evenodd" d="M24 11.5C30.9037 11.5 36.5 17.0963 36.5 24C36.5 30.9037 30.9037 36.5 24 36.5C17.0963 36.5 11.5 30.9037 11.5 24C11.5 17.0963 17.0963 11.5 24 11.5ZM24 14C21.3478 14 18.8043 15.0536 16.9289 16.9289C15.0536 18.8043 14 21.3478 14 24C14 26.6522 15.0536 29.1957 16.9289 31.0711C18.8043 32.9464 21.3478 34 24 34C26.6522 34 29.1957 32.9464 31.0711 31.0711C32.9464 29.1957 34 26.6522 34 24C34 21.3478 32.9464 18.8043 31.0711 16.9289C29.1957 15.0536 26.6522 14 24 14ZM24 25.25C25.5837 25.25 27.0337 25.8413 28.135 26.8125C28.3836 27.032 28.5349 27.3412 28.5555 27.6722C28.5762 28.0032 28.4645 28.3289 28.245 28.5775C28.0255 28.8261 27.7163 28.9774 27.3853 28.998C27.0543 29.0187 26.7286 28.907 26.48 28.6875C25.7951 28.0834 24.9132 27.7501 24 27.75C23.0487 27.75 22.1812 28.1025 21.52 28.6875C21.3969 28.7961 21.2536 28.8794 21.0983 28.9326C20.943 28.9858 20.7787 29.0079 20.6149 28.9976C20.4511 28.9873 20.2909 28.9449 20.1434 28.8727C19.996 28.8005 19.8642 28.7 19.7556 28.5769C19.647 28.4538 19.5638 28.3105 19.5106 28.1552C19.4573 27.9999 19.4353 27.8356 19.4455 27.6718C19.4558 27.5079 19.4982 27.3477 19.5704 27.2003C19.6426 27.0529 19.7431 26.9211 19.8663 26.8125C21.0079 25.8056 22.4778 25.2501 24 25.25ZM19.625 19C20.1223 19 20.5992 19.1975 20.9508 19.5492C21.3025 19.9008 21.5 20.3777 21.5 20.875C21.5 21.3723 21.3025 21.8492 20.9508 22.2008C20.5992 22.5525 20.1223 22.75 19.625 22.75C19.1277 22.75 18.6508 22.5525 18.2992 22.2008C17.9475 21.8492 17.75 21.3723 17.75 20.875C17.75 20.3777 17.9475 19.9008 18.2992 19.5492C18.6508 19.1975 19.1277 19 19.625 19ZM28.375 19C28.8723 19 29.3492 19.1975 29.7008 19.5492C30.0525 19.9008 30.25 20.3777 30.25 20.875C30.25 21.3723 30.0525 21.8492 29.7008 22.2008C29.3492 22.5525 28.8723 22.75 28.375 22.75C27.8777 22.75 27.4008 22.5525 27.0492 22.2008C26.6975 21.8492 26.5 21.3723 26.5 20.875C26.5 20.3777 26.6975 19.9008 27.0492 19.5492C27.4008 19.1975 27.8777 19 28.375 19Z" fill="white"/>
</svg>
