<svg width="34" height="34" viewBox="0 0 34 34" fill="none" xmlns="http://www.w3.org/2000/svg">
<path d="M2.8752 31.1248C4.7488 33 7.7664 33 13.8 33H20.2C26.2336 33 29.2512 33 31.1248 31.1248C32.9984 29.2496 33 26.2336 33 20.2C33 18.328 33 16.7472 32.944 15.4M31.1248 9.2752C29.2512 7.4 26.2336 7.4 20.2 7.4H13.8C7.7664 7.4 4.7488 7.4 2.8752 9.2752C1.0016 11.1504 1 14.1664 1 20.2C1 22.072 1 23.6528 1.056 25M17 1C20.0176 1 21.5248 1 22.4624 1.9376C23.4 2.8752 23.4 4.3824 23.4 7.4M11.5376 1.9376C10.6 2.8752 10.6 4.3824 10.6 7.4" stroke="white" stroke-opacity="0.8" stroke-width="2" stroke-linecap="round"/>
<path d="M17 25.5326C18.768 25.5326 20.2 24.339 20.2 22.867C20.2 21.395 18.768 20.1998 17 20.1998C15.232 20.1998 13.8 19.0062 13.8 17.5326C13.8 16.0606 15.232 14.867 17 14.867M17 25.5326C15.232 25.5326 13.8 24.339 13.8 22.867M17 25.5326V26.5998M17 14.867V13.7998M17 14.867C18.768 14.867 20.2 16.0606 20.2 17.5326" stroke="white" stroke-opacity="0.8" stroke-width="2" stroke-linecap="round"/>
</svg>
