<svg width="72" height="68" viewBox="0 0 72 68" fill="none" xmlns="http://www.w3.org/2000/svg">
<path d="M64 7.5H4V0H64V7.5ZM37.75 43.125C37.75 47.4 39.3625 51.975 41.5 56.25V60H4V37.5H0.25V30L4 11.25H64L66.625 24.375C64 23.175 61.3 22.5 58.375 22.5C47.125 22.5 37.75 31.875 37.75 43.125ZM34 37.5H11.5V52.5H34V37.5ZM71.5 43.125C71.5 52.875 58.375 67.5 58.375 67.5C58.375 67.5 45.25 52.875 45.25 43.125C45.25 36 51.25 30 58.375 30C65.5 30 71.5 36 71.5 43.125ZM62.875 43.5C62.875 41.25 60.625 39 58.375 39C56.125 39 53.875 40.875 53.875 43.5C53.875 45.75 55.75 48 58.375 48C61 48 63.25 45.75 62.875 43.5Z" fill="#30C0D0"/>
</svg>
