<svg width="206" height="116" viewBox="0 0 206 116" fill="none" xmlns="http://www.w3.org/2000/svg">
<path d="M31.904 102.091C31.0773 102.091 30.4071 101.42 30.4071 100.592V90.093H48.3691C51.6758 90.093 54.3565 92.779 54.3565 96.0922C54.3565 99.4054 51.6758 102.091 48.3691 102.091H31.904Z" fill="#CDE8FF"/>
<path d="M30.4071 72.0957H42.3818V93.0926H30.4071V72.0957Z" fill="#CDE8FF"/>
<path d="M0.437875 87.2662C-0.146378 86.6802 -0.145897 85.7306 0.43895 85.1452L7.85166 77.7254L20.5463 90.458C22.8833 92.802 22.8813 96.6004 20.542 98.942C18.2026 101.284 14.4116 101.282 12.0746 98.9377L0.437875 87.2662Z" fill="#CDE8FF"/>
<path d="M20.5589 65.0061L29.022 73.4945L14.1966 88.334L5.73353 79.8457L20.5589 65.0061Z" fill="#CDE8FF"/>
<path d="M35.304 24.512C35.304 25.3404 34.6338 26.0118 33.8072 26.0118C32.9805 26.0118 32.3103 25.3404 32.3103 24.512C32.3103 23.6837 32.9805 23.0123 33.8072 23.0123C34.6338 23.0123 35.304 23.6837 35.304 24.512Z" fill="#CDE8FF"/>
<path d="M47.2787 24.512C47.2787 25.3404 46.6085 26.0118 45.7818 26.0118C44.9552 26.0118 44.285 25.3404 44.285 24.512C44.285 23.6837 44.9552 23.0123 45.7818 23.0123C46.6085 23.0123 47.2787 23.6837 47.2787 24.512Z" fill="#CDE8FF"/>
<path fill-rule="evenodd" clip-rule="evenodd" d="M38.438 0C56.1729 0 68.1184 8.79394 70.3392 22.1686H85.331C97.5323 22.1686 106.707 27.0707 111.736 35.113C116.138 21.1425 129.175 11.014 144.573 11.014C163.586 11.014 179 26.4579 179 45.509C179 64.56 163.586 80.0039 144.573 80.0039C131.551 80.0039 120.22 72.7592 114.37 62.074C110.424 73.4445 99.8549 80.4023 84.7463 80.4023H70.5965V107H50.7167V85.8449C47.0131 86.7187 42.8693 87.1748 38.321 87.1748C17.2718 87.1748 3.58984 77.5668 3.23902 58.1165H22.4172C22.885 66.3184 28.9658 70.5366 38.0872 70.5366C44.4615 70.5366 48.8895 68.3861 50.7167 65.0032V61.4412L71.3683 56.397C71.6911 57.9735 71.8677 59.6388 71.8829 61.3973C71.8749 62.4895 71.8046 63.5518 71.6841 64.5843H81.1211C90.4763 64.5843 95.5048 59.3117 95.5048 51.3441C95.5048 51.061 95.494 50.7819 95.4814 50.5063L143.36 38.8098L142.64 44.431L150.56 40.6786L158.48 44.431L157.363 35.7253L163.371 29.3395L154.764 27.7108L150.56 20.0127L146.356 27.7108L137.749 29.3395L141.924 33.7773L94.3412 45.4006C92.3563 40.9561 87.8635 38.3382 81.1211 38.3382H70.5965V51.2005L51.0207 55.984C50.4951 56.1124 50.0362 56.3738 49.6701 56.7222C47.5452 54.5962 43.6729 53.1013 37.8533 51.7893L28.9658 49.6802C14.3483 46.2823 5.46088 39.0177 5.46088 26.2462C5.34394 10.5453 19.2598 0 38.438 0ZM38.321 16.521C30.2522 16.521 26.1593 20.0361 26.0423 24.8401C25.9254 30.1128 31.0708 32.6905 38.6719 34.3309L46.0391 36.0885C47.6673 36.4523 49.2272 36.8616 50.7167 37.3158V22.8394C49.0154 18.8027 44.8075 16.521 38.321 16.521Z" fill="#CDE8FF"/>
<path d="M99.2773 100.414C99.1211 99.0273 97.8516 98.2266 96.1523 98.2266C94.2773 98.2266 93.0469 99.2031 93.0469 100.551C93.0469 102.035 94.707 102.582 95.7812 102.855L97.1875 103.246C98.7109 103.637 101.191 104.516 101.191 107.152C101.191 109.457 99.3359 111.254 96.0547 111.254C93.0078 111.254 91.1133 109.672 90.957 107.328H92.7539C92.9102 108.91 94.375 109.652 96.0547 109.652C98.0078 109.652 99.4727 108.656 99.4727 107.113C99.4727 105.746 98.1641 105.219 96.6797 104.789L94.9414 104.32C92.7148 103.676 91.3477 102.543 91.3477 100.629C91.3477 98.2461 93.4766 96.6641 96.2109 96.6641C98.9453 96.6641 100.918 98.2656 100.996 100.414H99.2773ZM108.325 100.395V101.801H106.098V107.953C106.098 109.32 106.762 109.535 107.485 109.535C107.798 109.535 108.227 109.516 108.481 109.496V111.059C108.227 111.098 107.798 111.137 107.309 111.137C105.903 111.137 104.399 110.258 104.399 108.383V101.801H102.798V100.395H104.399V97.8555H106.098V100.395H108.325ZM110.185 107.992C110.185 105.551 112.334 105.004 114.17 104.867C114.843 104.818 116.562 104.73 117.041 104.711V103.852C117.041 102.504 116.24 101.723 114.638 101.723C113.291 101.723 112.49 102.348 112.255 103.148H110.498C110.712 101.449 112.373 100.258 114.716 100.258C116.103 100.258 118.701 100.668 118.701 104.008V111H117.041V109.555H116.962C116.611 110.277 115.634 111.254 113.798 111.254C111.787 111.254 110.185 110.062 110.185 107.992ZM111.865 108.07C111.865 109.184 112.802 109.75 114.091 109.75C115.986 109.75 117.041 108.48 117.041 107.152V106.078L114.365 106.273C112.841 106.371 111.865 106.918 111.865 108.07ZM121.596 111V100.395H123.217V102.016H123.334C123.725 100.941 124.819 100.219 126.069 100.219C126.323 100.219 126.752 100.238 126.948 100.258V101.957C126.83 101.918 126.362 101.84 125.932 101.84C124.409 101.84 123.276 102.895 123.276 104.32V111H121.596ZM134.081 100.395V101.801H131.855V107.953C131.855 109.32 132.519 109.535 133.241 109.535C133.554 109.535 133.984 109.516 134.237 109.496V111.059C133.984 111.098 133.554 111.137 133.066 111.137C131.659 111.137 130.155 110.258 130.155 108.383V101.801H128.554V100.395H130.155V97.8555H131.855V100.395H134.081ZM141.884 111V96.8594H146.688C150.009 96.8594 151.513 98.832 151.513 101.352C151.513 103.852 150.009 105.863 146.708 105.863H143.641V111H141.884ZM143.641 104.301H146.63C148.876 104.301 149.774 103.031 149.774 101.352C149.774 99.6523 148.876 98.4219 146.61 98.4219H143.641V104.301ZM158.177 111.215C155.287 111.215 153.334 109.047 153.334 105.746C153.334 102.445 155.287 100.258 158.177 100.258C161.048 100.258 162.982 102.445 162.982 105.746C162.982 109.047 161.048 111.215 158.177 111.215ZM158.177 109.73C160.306 109.73 161.302 107.855 161.302 105.746C161.302 103.637 160.306 101.742 158.177 101.742C156.009 101.742 155.013 103.637 155.013 105.746C155.013 107.855 156.009 109.73 158.177 109.73ZM165.389 111V100.395H167.069V111H165.389ZM166.229 98.6367C165.584 98.6367 165.057 98.1484 165.057 97.5234C165.057 96.8984 165.584 96.4102 166.229 96.4102C166.873 96.4102 167.42 96.8984 167.42 97.5234C167.42 98.1484 166.873 98.6367 166.229 98.6367ZM171.624 104.633V111H169.945V100.395H171.566V102.055H171.702C172.21 100.98 173.187 100.258 174.808 100.258C176.956 100.258 178.382 101.566 178.382 104.262V111H176.702V104.379C176.702 102.738 175.804 101.762 174.3 101.762C172.757 101.762 171.624 102.797 171.624 104.633ZM185.906 100.395V101.801H183.68V107.953C183.68 109.32 184.344 109.535 185.066 109.535C185.379 109.535 185.809 109.516 186.062 109.496V111.059C185.809 111.098 185.379 111.137 184.891 111.137C183.484 111.137 181.98 110.258 181.98 108.383V101.801H180.379V100.395H181.98V97.8555H183.68V100.395H185.906ZM192.61 111.215C189.544 111.215 187.649 109.047 187.649 105.785C187.649 102.523 189.563 100.258 192.454 100.258C194.68 100.258 197.024 101.625 197.024 105.551V106.254H189.329C189.407 108.5 190.716 109.73 192.61 109.73C193.88 109.73 194.68 109.184 195.071 108.52H196.868C196.36 110.121 194.798 111.215 192.61 111.215ZM189.348 104.828H195.325C195.325 103.051 194.192 101.742 192.454 101.742C190.618 101.742 189.446 103.188 189.348 104.828ZM199.412 111V100.395H201.033V102.016H201.15C201.541 100.941 202.634 100.219 203.884 100.219C204.138 100.219 204.568 100.238 204.763 100.258V101.957C204.646 101.918 204.177 101.84 203.748 101.84C202.224 101.84 201.091 102.895 201.091 104.32V111H199.412Z" fill="#CDE8FF"/>
</svg>
