<svg width="74" height="44" viewBox="0 0 74 44" fill="none" xmlns="http://www.w3.org/2000/svg">
<path d="M13.1893 41.9815C12.8476 41.9815 12.5705 41.7053 12.5705 41.3647V37.0476H19.9962C21.3632 37.0476 22.4714 38.1521 22.4714 39.5145C22.4714 40.877 21.3632 41.9815 19.9962 41.9815H13.1893Z" fill="#0047AB"/>
<path d="M12.5705 29.6468H17.521V38.2811H12.5705V29.6468Z" fill="#0047AB"/>
<path d="M0.181021 35.8852C-0.0605137 35.6442 -0.0603148 35.2537 0.181465 35.013L3.24594 31.9619L8.49399 37.1977C9.46012 38.1616 9.45933 39.7235 8.49221 40.6864C7.52509 41.6493 5.95787 41.6485 4.99173 40.6847L0.181021 35.8852Z" fill="#0047AB"/>
<path d="M8.49923 26.7315L11.9979 30.222L5.86898 36.3243L2.37029 32.8337L8.49923 26.7315Z" fill="#0047AB"/>
<path d="M14.5949 10.0797C14.5949 10.4203 14.3179 10.6965 13.9761 10.6965C13.6344 10.6965 13.3573 10.4203 13.3573 10.0797C13.3573 9.73911 13.6344 9.46299 13.9761 9.46299C14.3179 9.46299 14.5949 9.73911 14.5949 10.0797Z" fill="#0047AB"/>
<path d="M19.5454 10.0797C19.5454 10.4203 19.2683 10.6965 18.9266 10.6965C18.5848 10.6965 18.3078 10.4203 18.3078 10.0797C18.3078 9.73911 18.5848 9.46299 18.9266 9.46299C19.2683 9.46299 19.5454 9.73911 19.5454 10.0797Z" fill="#0047AB"/>
<path fill-rule="evenodd" clip-rule="evenodd" d="M15.8906 0C23.2223 0 28.1607 3.6162 29.0788 9.11608H35.2765C40.3206 9.11608 44.1135 11.1319 46.1926 14.439C48.0122 8.69411 53.4019 4.52913 59.7675 4.52913C67.6279 4.52913 74 10.8799 74 18.714C74 26.548 67.6279 32.8988 59.7675 32.8988C54.3843 32.8988 49.6999 29.9197 47.2815 25.5257C45.6501 30.2015 41.2808 33.0626 35.0348 33.0626H29.1852V44H20.9667V35.3007C19.4356 35.66 17.7225 35.8476 15.8422 35.8476C7.14031 35.8476 1.48407 31.8966 1.33903 23.8984H9.26744C9.46082 27.2711 11.9747 29.0057 15.7455 29.0057C18.3807 29.0057 20.2113 28.1214 20.9667 26.7303V25.2655L29.5042 23.1913C29.6377 23.8396 29.7107 24.5244 29.7169 25.2475C29.7136 25.6966 29.6846 26.1334 29.6348 26.558H33.5361C37.4036 26.558 39.4824 24.3898 39.4824 21.1134C39.4824 20.9971 39.478 20.8823 39.4727 20.7689L59.266 15.9592L58.9687 18.2707L62.2428 16.7277L65.5168 18.2707L65.0552 14.6908L67.5388 12.0648L63.9807 11.3951L62.2428 8.22952L60.5048 11.3951L56.9467 12.0648L58.6726 13.8897L39.0014 18.6694C38.1808 16.8418 36.3235 15.7652 33.5361 15.7652H29.1852V21.0544L21.0924 23.0215C20.8751 23.0743 20.6853 23.1818 20.534 23.325C19.6555 22.4508 18.0547 21.8361 15.6488 21.2965L11.9747 20.4293C5.93171 19.032 2.25757 16.0447 2.25757 10.7928C2.20923 4.3364 7.96216 0 15.8906 0ZM15.8422 6.79369C12.5065 6.79369 10.8145 8.23916 10.7661 10.2146C10.7178 12.3828 12.8449 13.4428 15.9873 14.1174L19.0329 14.8401C19.706 14.9897 20.3509 15.158 20.9667 15.3448V9.39192C20.2634 7.73195 18.5238 6.79369 15.8422 6.79369Z" fill="#0047AB"/>
</svg>
