<svg width="17" height="30" viewBox="0 0 17 30" fill="none" xmlns="http://www.w3.org/2000/svg">
<g clip-path="url(#clip0_1137_5068)">
<path d="M0.106172 10.4004C-0.0957027 9.88477 -7.77051e-05 9.28711 0.350547 8.87695L7.57555 0.439453C7.81461 0.158203 8.1493 0 8.49992 0C8.85055 0 9.18524 0.158203 9.4243 0.439453L16.6493 8.87695C16.9999 9.28711 17.0955 9.88477 16.8937 10.4004C16.6918 10.916 16.2296 11.25 15.7249 11.25H11.8999V28.125C11.8999 29.1621 11.1402 30 10.1999 30H6.79992C5.85961 30 5.09992 29.1621 5.09992 28.125V11.25H1.27492C0.764922 11.25 0.308047 10.916 0.106172 10.4004Z" fill="#D04797"/>
</g>
<defs>
<clipPath id="clip0_1137_5068">
<rect width="17" height="30" fill="white" transform="matrix(1 0 0 -1 0 30)"/>
</clipPath>
</defs>
</svg>
